<svg xmlns="http://www.w3.org/2000/svg" data-name="Layer 1" viewBox="0 0 100 125" x="0px" y="0px"><title>nintendo_switch_fill</title><path d="M88,28H12a7,7,0,0,0-7,7V65a7,7,0,0,0,7,7H88a7,7,0,0,0,7-7V35A7,7,0,0,0,88,28Zm-.5,7a1.25,1.25,0,1,1-1.25,1.25A1.25,1.25,0,0,1,87.5,35Zm0,6.5a1.25,1.25,0,1,1-1.25,1.25A1.25,1.25,0,0,1,87.5,41.5ZM12.5,36a3,3,0,1,1-3,3A3,3,0,0,1,12.5,36ZM9.25,52.75A1.25,1.25,0,1,1,10.5,51.5,1.25,1.25,0,0,1,9.25,52.75ZM12.5,56a1.25,1.25,0,1,1,1.25-1.25A1.25,1.25,0,0,1,12.5,56Zm0-6.5a1.25,1.25,0,1,1,1.25-1.25A1.25,1.25,0,0,1,12.5,49.5Zm3.25,3.25A1.25,1.25,0,1,1,17,51.5,1.25,1.25,0,0,1,15.75,52.75ZM80,68H20V32H80Zm3-28.5a1.25,1.25,0,1,1,1.25,1.25A1.25,1.25,0,0,1,83,39.5ZM87.5,55a3,3,0,1,1,3-3A3,3,0,0,1,87.5,55Zm3.25-14.25A1.25,1.25,0,1,1,92,39.5,1.25,1.25,0,0,1,90.75,40.75Z"/></svg>